<svg class="navbar-logo" width="250" xmlns="http://www.w3.org/2000/svg" viewBox="0 0 58.47 58.47">
  <defs>
    <style>
      .cls-1 {
        fill: #fff;
      }

      .cls-2 {
        fill: #231f20;
      }

      .cls-3 {
        fill: #6fb03c;
      }
    </style>'
  </defs>
  <g id="Layer_2" data-name="Layer 2">
    <g id="Layer_1-2" data-name="Layer 1">
      <g id="Layer_2-2" data-name="Layer 2">
        <g id="grantoftegaard">
          <path class="cls-1" d="M56.09,29.24c0,16.15-10.7,29.24-26.85,29.24a29.35,29.35,0,0,1-4.11-.28c-5.95-.84-22.3-13.76-22.3-29C2.83,13.09,13.09,0,29.24,0S56.09,13.09,56.09,29.24Z"></path>
          <path class="cls-3" d="M58.5,29.26A29.25,29.25,0,1,0,28,58.47c.87-6.79.59-16-4.77-23.81l-.64-.17C17.87,34.15,4.79,32,5.64,16.83c0,0,10.83-.89,14.86,4.6a23.89,23.89,0,0,1,4.08,11.31l.19.66c1.88,2.13,6.72,9.18,5.45,25.08A29.25,29.25,0,0,0,58.5,29.26M8.88,36.91s9.91-1.4,13,4a23.8,23.8,0,0,1,3.4,11.21s-17.86.82-16.4-15.21M36.51,16.42c-.7,5.1-6.4,10.33-6.4,10.33s-4.76-4.43-6-10.3c-.83-7.27,6-13.26,6-13.26s7.38,6,6.38,13.23M49.73,36.89c1.45,16-16.41,15.23-16.41,15.23a23.8,23.8,0,0,1,3.4-11.21c3.09-5.43,13-4,13-4M54,26.68c1.86,8.49-15.29,5.5-15.29,5.5s-1.36-16,6-15.09c5.35.69,2.43,7.07,2.43,7.07S53,21.74,54,26.68"></path>
        </g>
      </g>
    </g>
  </g>
</svg>